<svg width="35" height="34" viewBox="0 0 35 34" fill="none" xmlns="http://www.w3.org/2000/svg">
<g clip-path="url(#clip0_302_4385)">
<path fill-rule="evenodd" clip-rule="evenodd" d="M30.1314 2.125H4.30449C3.73368 2.125 3.18624 2.34888 2.78262 2.7474C2.379 3.14591 2.15224 3.68641 2.15224 4.25V29.75C2.15224 30.3136 2.379 30.8541 2.78262 31.2526C3.18624 31.6511 3.73368 31.875 4.30449 31.875H30.1314C30.7022 31.875 31.2497 31.6511 31.6533 31.2526C32.0569 30.8541 32.2837 30.3136 32.2837 29.75V4.25C32.2837 3.68641 32.0569 3.14591 31.6533 2.7474C31.2497 2.34888 30.7022 2.125 30.1314 2.125ZM4.30449 0C3.16287 0 2.068 0.447767 1.26076 1.2448C0.453507 2.04183 0 3.12283 0 4.25L0 29.75C0 30.8772 0.453507 31.9582 1.26076 32.7552C2.068 33.5522 3.16287 34 4.30449 34H30.1314C31.273 34 32.3679 33.5522 33.1751 32.7552C33.9824 31.9582 34.4359 30.8772 34.4359 29.75V4.25C34.4359 3.12283 33.9824 2.04183 33.1751 1.2448C32.3679 0.447767 31.273 0 30.1314 0L4.30449 0Z" fill="#8E0E00"/>
<path fill-rule="evenodd" clip-rule="evenodd" d="M25.8268 17.0004C25.8268 17.2822 25.7134 17.5524 25.5116 17.7517C25.3098 17.9509 25.0361 18.0629 24.7507 18.0629H12.2827L16.9036 22.6231C17.0037 22.7219 17.083 22.8392 17.1372 22.9682C17.1913 23.0973 17.2192 23.2357 17.2192 23.3754C17.2192 23.5151 17.1913 23.6534 17.1372 23.7825C17.083 23.9116 17.0037 24.0288 16.9036 24.1276C16.8036 24.2264 16.6848 24.3048 16.554 24.3582C16.4233 24.4117 16.2832 24.4392 16.1417 24.4392C16.0002 24.4392 15.8601 24.4117 15.7294 24.3582C15.5986 24.3048 15.4799 24.2264 15.3798 24.1276L8.92308 17.7526C8.82287 17.6539 8.74336 17.5367 8.68911 17.4076C8.63486 17.2785 8.60693 17.1401 8.60693 17.0004C8.60693 16.8606 8.63486 16.7222 8.68911 16.5931C8.74336 16.4641 8.82287 16.3468 8.92308 16.2481L15.3798 9.87312C15.5819 9.67361 15.8559 9.56152 16.1417 9.56152C16.4275 9.56152 16.7015 9.67361 16.9036 9.87312C17.1057 10.0726 17.2192 10.3432 17.2192 10.6254C17.2192 10.9075 17.1057 11.1781 16.9036 11.3776L12.2827 15.9379H24.7507C25.0361 15.9379 25.3098 16.0498 25.5116 16.2491C25.7134 16.4483 25.8268 16.7186 25.8268 17.0004Z" fill="#8E0E00"/>
</g>
<defs>
<clipPath id="clip0_302_4385">
<rect width="34.4359" height="34" fill="white"/>
</clipPath>
</defs>
</svg>
