<svg width="78" height="77" viewBox="0 0 78 77" fill="none" xmlns="http://www.w3.org/2000/svg">
<path d="M13.1914 32.4332C13.6106 32.4332 14.0259 32.5157 14.4131 32.6764L14.5566 32.7408C14.887 32.8974 15.1884 33.1095 15.4473 33.3688L39.4414 57.3668L63.4355 33.3688L63.5498 33.2594C64.135 32.7295 64.8981 32.4342 65.6914 32.4342C66.5375 32.4342 67.349 32.7705 67.9473 33.3688L68.0566 33.483C68.5866 34.0683 68.8818 34.8314 68.8818 35.6246C68.8818 36.4179 68.5866 37.181 68.0566 37.7662L67.9473 37.8805L41.6973 64.1305C41.4384 64.3898 41.137 64.6018 40.8066 64.7584L40.6631 64.8229C40.2759 64.9835 39.8606 65.066 39.4414 65.066C39.0746 65.066 38.7108 65.003 38.3662 64.8795L38.2197 64.8229C37.8329 64.6623 37.4815 64.4269 37.1855 64.1305L10.9355 37.8805L10.9365 37.8795C10.6773 37.6207 10.4642 37.3202 10.3076 36.9899L10.2432 36.8463C10.0825 36.4591 10 36.0439 10 35.6246C10 35.2054 10.0825 34.7902 10.2432 34.403L10.3076 34.2594C10.4644 33.9287 10.6768 33.6268 10.9365 33.3678C11.2322 33.0718 11.5833 32.8367 11.9697 32.6764L12.1162 32.6198C12.4608 32.4963 12.8246 32.4332 13.1914 32.4332Z" fill="#8E0E00" stroke="#8E0E00" stroke-width="2"/>
<path d="M13.1914 11.9332C13.6106 11.9332 14.0259 12.0157 14.4131 12.1764L14.5566 12.2408C14.887 12.3974 15.1884 12.6095 15.4473 12.8688L39.4414 36.8668L63.4355 12.8688L63.5488 12.7604C63.8199 12.5147 64.132 12.3177 64.4707 12.1774L64.6172 12.1207C64.9616 11.9976 65.3249 11.9342 65.6914 11.9342C66.1103 11.9342 66.5251 12.0171 66.9121 12.1774L67.0557 12.2408C67.3863 12.3973 67.688 12.6096 67.9473 12.8688L68.0557 12.9821C68.3013 13.2532 68.4984 13.5652 68.6387 13.9039L68.6953 14.0504C68.8185 14.3948 68.8818 14.7581 68.8818 15.1246C68.8818 15.4911 68.8185 15.8545 68.6953 16.1989L68.6387 16.3453C68.4984 16.684 68.3013 16.9961 68.0557 17.2672L67.9473 17.3805L41.6973 43.6305C41.4384 43.8898 41.137 44.1018 40.8066 44.2584L40.6631 44.3229C40.2759 44.4835 39.8607 44.566 39.4414 44.566C39.0746 44.566 38.7108 44.503 38.3662 44.3795L38.2197 44.3229C37.8329 44.1623 37.4815 43.9269 37.1855 43.6305L10.9355 17.3805L10.9365 17.3795C10.6773 17.1207 10.4642 16.8202 10.3076 16.4899L10.2432 16.3463C10.0825 15.9591 10 15.5439 10 15.1246C10 14.7054 10.0825 14.2902 10.2432 13.903L10.3076 13.7594C10.4644 13.4287 10.6768 13.1268 10.9365 12.8678C11.2322 12.5718 11.5833 12.3367 11.9697 12.1764L12.1162 12.1198C12.4608 11.9963 12.8246 11.9332 13.1914 11.9332Z" fill="#8E0E00" stroke="#8E0E00" stroke-width="2"/>
</svg>
