<svg width="40" height="40" viewBox="0 0 40 40" fill="none" xmlns="http://www.w3.org/2000/svg">
<path fill-rule="evenodd" clip-rule="evenodd" d="M28.3848 4.11479C28.5012 4.23091 28.5936 4.36885 28.6566 4.52071C28.7196 4.67257 28.752 4.83537 28.752 4.99979C28.752 5.16421 28.7196 5.32701 28.6566 5.47888C28.5936 5.63074 28.5012 5.76868 28.3848 5.88479L14.2673 19.9998L28.3848 34.1148C28.6195 34.3495 28.7514 34.6679 28.7514 34.9998C28.7514 35.3317 28.6195 35.6501 28.3848 35.8848C28.1501 36.1195 27.8317 36.2514 27.4998 36.2514C27.1679 36.2514 26.8495 36.1195 26.6148 35.8848L11.6148 20.8848C11.4984 20.7687 11.406 20.6307 11.343 20.4789C11.28 20.327 11.2476 20.1642 11.2476 19.9998C11.2476 19.8354 11.28 19.6726 11.343 19.5207C11.406 19.3688 11.4984 19.2309 11.6148 19.1148L26.6148 4.11479C26.7309 3.99839 26.8688 3.90603 27.0207 3.84301C27.1726 3.78 27.3354 3.74756 27.4998 3.74756C27.6642 3.74756 27.827 3.78 27.9789 3.84301C28.1307 3.90603 28.2687 3.99839 28.3848 4.11479Z" fill="#171717"/>
</svg>
