<svg width="15" height="16" viewBox="0 0 15 16" fill="none" xmlns="http://www.w3.org/2000/svg">
<g clip-path="url(#clip0_512_3616)">
<path fill-rule="evenodd" clip-rule="evenodd" d="M7.98281 1.45531C7.82215 1.44345 7.6611 1.43751 7.5 1.4375V0.5C7.68425 0.50009 7.86844 0.50697 8.05219 0.520625L7.98281 1.45531ZM9.86156 1.87719C9.56104 1.76122 9.2524 1.66753 8.93813 1.59688L9.14344 0.681875C9.5025 0.7625 9.85594 0.869375 10.1991 1.0025L9.86156 1.87719ZM11.1459 2.54281C11.0119 2.45342 10.8746 2.36899 10.7344 2.28969L11.1966 1.47406C11.5171 1.65569 11.8239 1.86062 12.1144 2.08719L11.5378 2.82688C11.4107 2.72772 11.28 2.63328 11.1459 2.54375V2.54281ZM12.8653 4.22094C12.6799 3.95748 12.4753 3.70805 12.2531 3.47469L12.9319 2.82781C13.185 3.095 13.4194 3.38094 13.6322 3.68094L12.8653 4.22094ZM13.5628 5.48844C13.5013 5.33981 13.4344 5.19346 13.3622 5.04969L14.1994 4.62781C14.3649 4.95695 14.5059 5.29788 14.6212 5.64781L13.7306 5.94125C13.6802 5.78831 13.6243 5.63727 13.5628 5.48844ZM14.0597 7.83875C14.0521 7.51657 14.0208 7.19538 13.9659 6.87781L14.8894 6.71844C14.9522 7.08031 14.9887 7.44781 14.9981 7.81531L14.0606 7.83875H14.0597ZM13.9369 9.28063C13.9678 9.12125 13.9931 8.96281 14.0128 8.8025L14.9437 8.91781C14.8987 9.28358 14.8266 9.64551 14.7281 10.0006L13.8244 9.75031C13.8675 9.59562 13.905 9.43906 13.9369 9.28063ZM13.0444 11.5109C13.2169 11.2391 13.3687 10.9541 13.5 10.6597L14.3569 11.0394C14.2069 11.3769 14.0334 11.7013 13.8366 12.0125L13.0444 11.5109ZM12.1406 12.6406C12.255 12.5263 12.3647 12.4081 12.4688 12.2863L13.1794 12.8984C13.059 13.038 12.9336 13.1731 12.8034 13.3034L12.1406 12.6406Z" fill="#171717"/>
<path fill-rule="evenodd" clip-rule="evenodd" d="M7.5 1.4375C6.42082 1.43758 5.35832 1.70379 4.4066 2.21257C3.45488 2.72134 2.64332 3.45697 2.0438 4.3543C1.44428 5.25162 1.07531 6.28295 0.969556 7.35693C0.863806 8.43091 1.02455 9.5144 1.43754 10.5114C1.85053 11.5084 2.50303 12.3882 3.33724 13.0729C4.17145 13.7575 5.16163 14.2258 6.22006 14.4364C7.2785 14.6469 8.37252 14.5932 9.40524 14.28C10.438 13.9668 11.3775 13.4037 12.1406 12.6406L12.8034 13.3034C11.9313 14.176 10.8574 14.8201 9.67691 15.1784C8.4964 15.5368 7.24572 15.5985 6.03568 15.358C4.82565 15.1174 3.69361 14.5822 2.73989 13.7996C1.78616 13.017 1.04019 12.0113 0.568062 10.8715C0.0959366 9.73166 -0.087764 8.49301 0.0332371 7.26525C0.154238 6.03749 0.576205 4.85853 1.26175 3.83283C1.94729 2.80713 2.87525 1.96635 3.9634 1.385C5.05155 0.803652 6.26629 0.499673 7.5 0.5V1.4375Z" fill="#171717"/>
<path fill-rule="evenodd" clip-rule="evenodd" d="M7.03125 3.3125C7.15557 3.3125 7.2748 3.36189 7.36271 3.44979C7.45061 3.5377 7.5 3.65693 7.5 3.78125V8.66562L10.545 10.4056C10.6498 10.4688 10.7257 10.5706 10.7565 10.689C10.7873 10.8075 10.7706 10.9333 10.7099 11.0396C10.6491 11.1458 10.5492 11.2241 10.4315 11.2577C10.3139 11.2913 10.1877 11.2776 10.08 11.2194L6.79875 9.34437C6.72701 9.30339 6.66737 9.24418 6.62588 9.17272C6.58439 9.10127 6.56253 9.02012 6.5625 8.9375V3.78125C6.5625 3.65693 6.61189 3.5377 6.69979 3.44979C6.7877 3.36189 6.90693 3.3125 7.03125 3.3125Z" fill="#171717"/>
</g>
<defs>
<clipPath id="clip0_512_3616">
<rect width="15" height="15" fill="white" transform="translate(0 0.5)"/>
</clipPath>
</defs>
</svg>
