<svg width="32" height="32" viewBox="0 0 32 32" fill="none" xmlns="http://www.w3.org/2000/svg">
<path d="M16 20.1176C13.7941 20.1176 11.8823 18.3529 11.8823 16C11.8823 13.7941 13.647 11.8824 16 11.8824C18.2059 11.8824 20.1176 13.6471 20.1176 16C20.1176 18.2059 18.2059 20.1176 16 20.1176Z" fill="#E9F1F7"/>
<path fill-rule="evenodd" clip-rule="evenodd" d="M21 6H11C9.82353 6.14706 9.2353 6.29412 8.79412 6.44118C8.20588 6.58824 7.76471 6.88235 7.32353 7.32353C7.02941 7.61765 6.88235 8.05882 6.58824 8.5C6.58824 8.64706 6.44118 8.79412 6.44118 8.79412C6.44118 8.79412 6.44118 8.94118 6.29412 8.94118C6.14706 9.38235 6 9.97059 6 11V21C6.14706 22.1765 6.29412 22.7647 6.44118 23.2059C6.58824 23.7941 6.88235 24.2353 7.32353 24.6765C7.61765 24.9706 8.05882 25.1176 8.5 25.4118C8.64706 25.4118 8.79412 25.5588 8.79412 25.5588C8.79412 25.5588 8.94118 25.5588 8.94118 25.7059C9.38235 25.8529 9.97059 26 11 26H21C22.1765 25.8529 22.7647 25.7059 23.2059 25.5588C23.7941 25.4118 24.2353 25.1176 24.6765 24.6765C24.9706 24.3824 25.1176 23.9412 25.4118 23.5C25.4118 23.3529 25.5588 23.2059 25.5588 23.2059C25.5588 23.2059 25.5588 23.0588 25.7059 23.0588C25.8529 22.6176 26 22.0294 26 21V11C25.8529 9.82353 25.7059 9.2353 25.5588 8.79412C25.4118 8.20588 25.1176 7.76471 24.6765 7.32353C24.3824 7.02941 23.9412 6.88235 23.5 6.58824C23.3529 6.58824 23.2059 6.44118 23.2059 6.44118C23.2059 6.44118 23.0588 6.44118 23.0588 6.29412C22.6176 6.14706 22.0294 6 21 6ZM16 9.67647C12.4706 9.67647 9.67647 12.4706 9.67647 16C9.67647 19.5294 12.4706 22.3235 16 22.3235C19.5294 22.3235 22.3235 19.5294 22.3235 16C22.3235 12.4706 19.5294 9.67647 16 9.67647ZM23.9412 9.52941C23.9412 10.4118 23.3529 11 22.4706 11C21.5882 11 21 10.4118 21 9.52941C21 8.64706 21.5882 8.05882 22.4706 8.05882C23.3529 8.05882 23.9412 8.64706 23.9412 9.52941Z" fill="#E9F1F7"/>
</svg>
