<svg width="16" height="16" viewBox="0 0 16 16" fill="none" xmlns="http://www.w3.org/2000/svg">
<g clip-path="url(#clip0_338_845)">
<path fill-rule="evenodd" clip-rule="evenodd" d="M8.00008 2C4.68637 2 2.00008 4.68629 2.00008 8C2.00008 11.3137 4.68637 14 8.00008 14C11.3138 14 14.0001 11.3137 14.0001 8C14.0001 4.68629 11.3138 2 8.00008 2ZM0.666748 8C0.666748 3.94991 3.94999 0.666664 8.00008 0.666664C12.0502 0.666664 15.3334 3.94991 15.3334 8C15.3334 12.0501 12.0502 15.3333 8.00008 15.3333C3.94999 15.3333 0.666748 12.0501 0.666748 8Z" fill="#E9F1F7"/>
<path fill-rule="evenodd" clip-rule="evenodd" d="M0.666748 8C0.666748 7.63181 0.965225 7.33334 1.33341 7.33334H14.6667C15.0349 7.33334 15.3334 7.63181 15.3334 8C15.3334 8.36819 15.0349 8.66667 14.6667 8.66667H1.33341C0.965225 8.66667 0.666748 8.36819 0.666748 8Z" fill="#E9F1F7"/>
<path fill-rule="evenodd" clip-rule="evenodd" d="M6.00024 8C6.04593 10.0499 6.75092 12.0234 8.00008 13.6328C9.24924 12.0234 9.95424 10.0499 9.99993 8C9.95424 5.95011 9.24924 3.97657 8.00008 2.3672C6.75092 3.97657 6.04593 5.95011 6.00024 8ZM8.00008 1.33334L7.50785 0.88372C5.73134 2.82861 4.72176 5.35257 4.66689 7.98612C4.6667 7.99537 4.6667 8.00463 4.66689 8.01389C4.72176 10.6474 5.73134 13.1714 7.50785 15.1163C7.63416 15.2546 7.8128 15.3333 8.00008 15.3333C8.18736 15.3333 8.366 15.2546 8.49231 15.1163C10.2688 13.1714 11.2784 10.6474 11.3333 8.01389C11.3335 8.00463 11.3335 7.99537 11.3333 7.98612C11.2784 5.35257 10.2688 2.82861 8.49231 0.88372L8.00008 1.33334Z" fill="#E9F1F7"/>
</g>
<defs>
<clipPath id="clip0_338_845">
<rect width="16" height="16" fill="white"/>
</clipPath>
</defs>
</svg>
