<svg width="32" height="32" viewBox="0 0 32 32" fill="none" xmlns="http://www.w3.org/2000/svg">
<path fill-rule="evenodd" clip-rule="evenodd" d="M6.375 12.625V26H10.625V12.625H6.375ZM6.125 8.375C6.125 9.75 7.125 10.75 8.5 10.75C9.875 10.75 10.875 9.75 10.875 8.375C10.875 7 9.875 6 8.5 6C7.25 6 6.125 7 6.125 8.375ZM21.875 26H25.875V17.75C25.875 13.625 23.375 12.25 21 12.25C18.875 12.25 17.375 13.625 17 14.5V12.625H13V26H17.25V18.875C17.25 17 18.5 16 19.75 16C21 16 21.875 16.625 21.875 18.75V26Z" fill="#E9F1F7"/>
</svg>
