<svg width="278" height="56" viewBox="0 0 278 56" fill="none" xmlns="http://www.w3.org/2000/svg">
<path opacity="0.939" fill-rule="evenodd" clip-rule="evenodd" d="M10 11.2021C23.4232 11.2021 36.8465 11.2021 50.2697 11.2021C50.2697 12.2508 50.2697 13.2995 50.2697 14.3482C37.8951 14.3482 25.5207 14.3482 13.1461 14.3482C13.1461 16.131 13.1461 17.9138 13.1461 19.6965C19.176 19.6965 25.206 19.6965 31.236 19.6965C31.236 27.0374 31.236 34.3781 31.236 41.719C30.1872 41.719 29.1386 41.719 28.0899 41.719C28.0899 35.3745 28.0899 29.0298 28.0899 22.6853C22.06 22.6853 16.0299 22.6853 10 22.6853C10 18.8576 10 15.0299 10 11.2021Z" fill="#8E0E00"/>
<path opacity="0.957" fill-rule="evenodd" clip-rule="evenodd" d="M33.5946 19.6963C39.1526 19.6963 44.7108 19.6963 50.2688 19.6963C50.2688 23.4192 50.2688 27.1419 50.2688 30.8648C46.3886 30.8648 42.5085 30.8648 38.6283 30.8648C38.6283 36.79 38.6283 42.715 38.6283 48.6401C33.0178 48.6401 27.4074 48.6401 21.7969 48.6401C21.7969 41.7188 21.7969 34.7974 21.7969 27.8761C22.7931 27.8761 23.7894 27.8761 24.7856 27.8761C24.7856 33.7487 24.7856 39.6214 24.7856 45.494C28.3512 45.494 31.9167 45.494 35.4823 45.494C35.4823 39.6214 35.4823 33.7487 35.4823 27.8761C39.4149 27.8761 43.3474 27.8761 47.28 27.8761C47.28 26.1457 47.28 24.4154 47.28 22.6851C42.7182 22.6851 38.1564 22.6851 33.5946 22.6851C33.5946 21.6889 33.5946 20.6925 33.5946 19.6963Z" fill="#8E0E00"/>
<path fill-rule="evenodd" clip-rule="evenodd" d="M62.2246 19.6963C67.8875 19.6963 73.5505 19.6963 79.2134 19.6963C79.2134 20.6925 79.2134 21.6889 79.2134 22.6851C76.9587 22.6851 74.704 22.6851 72.4493 22.6851C72.4493 27.3518 72.4493 32.0183 72.4493 36.6851C71.2958 36.6851 70.1422 36.6851 68.9887 36.6851C68.9887 32.0183 68.9887 27.3518 68.9887 22.6851C66.734 22.6851 64.4792 22.6851 62.2246 22.6851C62.2246 21.6889 62.2246 20.6925 62.2246 19.6963Z" fill="#8E0E00"/>
<path fill-rule="evenodd" clip-rule="evenodd" d="M83.6172 19.6963C88.6509 19.6963 93.6846 19.6963 98.7183 19.6963C98.7183 20.6925 98.7183 21.6889 98.7183 22.6851C94.8381 22.6851 90.9581 22.6851 87.0779 22.6851C87.0779 23.8911 87.0779 25.097 87.0779 26.303C89.3325 26.303 91.5873 26.303 93.8419 26.303C93.8419 27.2992 93.8419 28.2956 93.8419 29.2918C91.5873 29.2918 89.3325 29.2918 87.0779 29.2918C87.0779 30.7075 87.0779 32.1233 87.0779 33.539C91.0104 33.539 94.943 33.539 98.8756 33.539C98.8756 34.5877 98.8756 35.6363 98.8756 36.6851C93.7895 36.6851 88.7033 36.6851 83.6172 36.6851C83.6172 31.0221 83.6172 25.3592 83.6172 19.6963Z" fill="#8E0E00"/>
<path opacity="0.991" fill-rule="evenodd" clip-rule="evenodd" d="M105.954 19.6963C110.157 19.6233 114.352 19.7019 118.539 19.9322C119.262 20.1836 119.708 20.6818 119.876 21.4266C120.092 22.7791 120.171 24.1425 120.112 25.5165C118.958 25.6736 117.805 25.8309 116.651 25.9884C116.651 24.9397 116.651 23.8911 116.651 22.8423C113.505 22.8423 110.359 22.8423 107.213 22.8423C107.213 26.3554 107.213 29.8686 107.213 33.3817C110.359 33.3817 113.505 33.3817 116.651 33.3817C116.651 32.1756 116.651 30.9697 116.651 29.7637C117.768 29.9513 118.869 30.2134 119.954 30.5502C120.211 32.1969 120.132 33.8223 119.718 35.4266C119.285 36.0679 118.682 36.4612 117.909 36.6064C113.924 36.7113 109.939 36.7113 105.954 36.6064C104.657 36.4 103.949 35.6398 103.831 34.3255C103.726 30.2356 103.726 26.1457 103.831 22.0558C103.973 20.7349 104.681 19.9484 105.954 19.6963Z" fill="#8E0E00"/>
<path fill-rule="evenodd" clip-rule="evenodd" d="M125.617 19.6963C126.771 19.6963 127.924 19.6963 129.078 19.6963C129.078 21.8462 129.078 23.9959 129.078 26.1457C132.643 26.1457 136.209 26.1457 139.774 26.1457C139.774 23.9959 139.774 21.8462 139.774 19.6963C140.928 19.6963 142.082 19.6963 143.235 19.6963C143.235 25.3592 143.235 31.0221 143.235 36.6851C142.082 36.6851 140.928 36.6851 139.774 36.6851C139.774 34.3255 139.774 31.966 139.774 29.6064C136.209 29.6064 132.643 29.6064 129.078 29.6064C129.078 31.966 129.078 34.3255 129.078 36.6851C127.924 36.6851 126.771 36.6851 125.617 36.6851C125.617 31.0221 125.617 25.3592 125.617 19.6963Z" fill="#8E0E00"/>
<path opacity="0.996" fill-rule="evenodd" clip-rule="evenodd" d="M149.527 19.6964C154.247 19.6701 158.966 19.6964 163.685 19.775C164.671 20.0793 165.273 20.7346 165.494 21.7413C165.599 23.8386 165.599 25.9361 165.494 28.0335C165.269 29.0441 164.666 29.6996 163.685 29.9997C160.12 30.0784 156.554 30.1047 152.988 30.0784C152.988 32.2806 152.988 34.4829 152.988 36.6851C151.835 36.6851 150.681 36.6851 149.527 36.6851C149.527 31.0222 149.527 25.3593 149.527 19.6964ZM152.988 22.6851C155.768 22.6589 158.547 22.6851 161.325 22.7638C161.668 22.7894 161.956 22.9205 162.19 23.1571C162.505 24.3106 162.505 25.4642 162.19 26.6177C161.956 26.8543 161.668 26.9853 161.325 27.011C158.547 27.0896 155.768 27.1159 152.988 27.0896C152.988 25.6215 152.988 24.1533 152.988 22.6851Z" fill="#8E0E00"/>
<path opacity="0.992" fill-rule="evenodd" clip-rule="evenodd" d="M170.606 19.6964C175.326 19.6701 180.045 19.6964 184.764 19.775C185.745 20.0752 186.348 20.7306 186.573 21.7413C186.678 23.8912 186.678 26.0409 186.573 28.1908C186.354 29.1961 185.752 29.8516 184.764 30.1571C183.715 30.2094 182.667 30.262 181.618 30.3144C183.815 32.3547 185.966 34.4521 188.067 36.6065C186.389 36.7114 184.712 36.7114 183.033 36.6065C181.174 34.5118 179.286 32.4406 177.37 30.393C176.274 30.2362 175.173 30.1838 174.067 30.2357C174.067 32.3856 174.067 34.5353 174.067 36.6851C172.914 36.6851 171.759 36.6851 170.606 36.6851C170.606 31.0222 170.606 25.3593 170.606 19.6964ZM174.067 22.6851C176.847 22.6589 179.626 22.6851 182.404 22.7638C182.747 22.7894 183.035 22.9205 183.269 23.1571C183.584 24.3631 183.584 25.569 183.269 26.775C183.035 27.0116 182.747 27.1426 182.404 27.1683C179.626 27.2469 176.847 27.2732 174.067 27.2469C174.067 25.7263 174.067 24.2058 174.067 22.6851Z" fill="#8E0E00"/>
<path opacity="0.994" fill-rule="evenodd" clip-rule="evenodd" d="M194.202 19.6964C198.817 19.6701 203.431 19.6964 208.044 19.775C209.274 19.9572 209.982 20.6651 210.168 21.8986C210.273 26.0409 210.273 30.1833 210.168 34.3256C210.05 35.6399 209.342 36.4001 208.044 36.6065C203.431 36.7114 198.815 36.7114 194.202 36.6065C192.899 36.4048 192.191 35.6444 192.078 34.3256C191.973 30.2357 191.973 26.1458 192.078 22.0559C192.22 20.7351 192.928 19.9485 194.202 19.6964ZM195.46 22.8424C199.235 22.8424 203.011 22.8424 206.786 22.8424C206.786 26.3555 206.786 29.8687 206.786 33.3818C203.011 33.3818 199.235 33.3818 195.46 33.3818C195.46 29.8687 195.46 26.3555 195.46 22.8424Z" fill="#8E0E00"/>
<path opacity="0.987" fill-rule="evenodd" clip-rule="evenodd" d="M229.123 19.6964C232.952 19.6701 236.779 19.6964 240.606 19.775C245.094 20.7228 247.244 23.5017 247.056 28.1121C247.17 33.0264 244.811 35.8579 239.977 36.6065C236.359 36.6851 232.741 36.7114 229.123 36.6851C229.123 31.0222 229.123 25.3593 229.123 19.6964ZM232.584 22.6851C234.786 22.6589 236.988 22.6851 239.19 22.7638C242.269 23.0889 243.737 24.8193 243.595 27.9548C243.579 29.4105 243.186 30.7476 242.415 31.966C241.537 32.7324 240.515 33.1782 239.348 33.3031C237.098 33.5112 234.844 33.5899 232.584 33.5391C232.584 29.9211 232.584 26.3031 232.584 22.6851Z" fill="#8E0E00"/>
<path opacity="0.991" fill-rule="evenodd" clip-rule="evenodd" d="M254.134 19.6963C258.337 19.6233 262.531 19.7019 266.719 19.9322C267.442 20.1836 267.887 20.6818 268.056 21.4266C268.273 22.7791 268.351 24.1425 268.292 25.5165C267.139 25.6736 265.986 25.8309 264.831 25.9884C264.831 24.9397 264.831 23.8911 264.831 22.8423C261.685 22.8423 258.539 22.8423 255.393 22.8423C255.393 26.3554 255.393 29.8686 255.393 33.3817C258.539 33.3817 261.685 33.3817 264.831 33.3817C264.831 32.1756 264.831 30.9697 264.831 29.7637C265.948 29.9513 267.049 30.2134 268.134 30.5502C268.391 32.1969 268.312 33.8223 267.898 35.4266C267.466 36.0679 266.862 36.4612 266.089 36.6064C262.105 36.7113 258.119 36.7113 254.134 36.6064C252.837 36.4 252.129 35.6398 252.011 34.3255C251.905 30.2356 251.905 26.1457 252.011 22.0558C252.152 20.7349 252.86 19.9484 254.134 19.6963Z" fill="#8E0E00"/>
</svg>
