<svg width="17" height="16" viewBox="0 0 17 16" fill="none" xmlns="http://www.w3.org/2000/svg">
<path fill-rule="evenodd" clip-rule="evenodd" d="M2.39604 4.64592C2.44249 4.59935 2.49766 4.56241 2.55841 4.5372C2.61915 4.512 2.68427 4.49902 2.75004 4.49902C2.81581 4.49902 2.88093 4.512 2.94167 4.5372C3.00242 4.56241 3.05759 4.59935 3.10404 4.64592L8.75004 10.2929L14.396 4.64592C14.4425 4.59943 14.4977 4.56255 14.5585 4.53739C14.6192 4.51223 14.6843 4.49929 14.75 4.49929C14.8158 4.49929 14.8809 4.51223 14.9416 4.53739C15.0024 4.56255 15.0576 4.59943 15.104 4.64592C15.1505 4.6924 15.1874 4.74759 15.2126 4.80833C15.2377 4.86907 15.2507 4.93417 15.2507 4.99992C15.2507 5.06566 15.2377 5.13076 15.2126 5.1915C15.1874 5.25224 15.1505 5.30743 15.104 5.35392L9.10404 11.3539C9.05759 11.4005 9.00242 11.4374 8.94167 11.4626C8.88093 11.4878 8.81581 11.5008 8.75004 11.5008C8.68427 11.5008 8.61915 11.4878 8.55841 11.4626C8.49766 11.4374 8.44248 11.4005 8.39604 11.3539L2.39604 5.35392C2.34948 5.30747 2.31253 5.2523 2.28733 5.19155C2.26212 5.13081 2.24915 5.06568 2.24915 4.99992C2.24915 4.93415 2.26212 4.86903 2.28733 4.80828C2.31253 4.74754 2.34948 4.69236 2.39604 4.64592Z" fill="#F8F9FA"/>
</svg>
