<svg width="24" height="25" viewBox="0 0 24 25" fill="none" xmlns="http://www.w3.org/2000/svg">
<g clip-path="url(#clip0_150_3927)">
<path fill-rule="evenodd" clip-rule="evenodd" d="M5.46999 2.48536C5.38144 2.37145 5.26966 2.27769 5.14209 2.2103C5.01452 2.14291 4.87407 2.10343 4.73007 2.0945C4.58606 2.08556 4.44181 2.10736 4.30688 2.15846C4.17196 2.20956 4.04944 2.28878 3.94749 2.39086L2.39649 3.94336C1.67199 4.66936 1.40499 5.69686 1.72149 6.59836C3.0351 10.3297 5.17193 13.7175 7.97349 16.5104C10.7664 19.3119 14.1541 21.4487 17.8855 22.7624C18.787 23.0789 19.8145 22.8119 20.5405 22.0874L22.0915 20.5364C22.1936 20.4344 22.2728 20.3119 22.3239 20.177C22.375 20.042 22.3968 19.8978 22.3879 19.7538C22.3789 19.6098 22.3394 19.4693 22.2721 19.3418C22.2047 19.2142 22.1109 19.1024 21.997 19.0139L18.5365 16.3229C18.4148 16.2285 18.2733 16.163 18.1225 16.1313C17.9718 16.0996 17.8159 16.1025 17.6665 16.1399L14.3815 16.9604C13.943 17.07 13.4836 17.0641 13.0481 16.9435C12.6125 16.8228 12.2156 16.5914 11.896 16.2719L8.21199 12.5864C7.89214 12.2669 7.66048 11.8701 7.53956 11.4345C7.41864 10.9989 7.41258 10.5395 7.52199 10.1009L8.34399 6.81586C8.38135 6.66646 8.38429 6.51052 8.35259 6.35981C8.32089 6.2091 8.25537 6.06756 8.16099 5.94586L5.46999 2.48536ZM2.81499 1.25986C3.07748 0.997287 3.39283 0.793558 3.7401 0.662204C4.08736 0.530851 4.4586 0.474878 4.82916 0.498002C5.19972 0.521126 5.56112 0.622819 5.88936 0.796328C6.2176 0.969836 6.50518 1.21119 6.73299 1.50436L9.42399 4.96336C9.91749 5.59786 10.0915 6.42436 9.89649 7.20436L9.07599 10.4894C9.03357 10.6595 9.03586 10.8377 9.08264 11.0067C9.12942 11.1757 9.21911 11.3298 9.34299 11.4539L13.0285 15.1394C13.1527 15.2635 13.307 15.3533 13.4763 15.4001C13.6456 15.4469 13.8241 15.4491 13.9945 15.4064L17.278 14.5859C17.6629 14.4896 18.0647 14.4821 18.4529 14.564C18.8411 14.6459 19.2057 14.8149 19.519 15.0584L22.978 17.7494C24.2215 18.7169 24.3355 20.5544 23.2225 21.6659L21.6715 23.2169C20.5615 24.3269 18.9025 24.8144 17.356 24.2699C13.3978 22.8771 9.8039 20.6111 6.84099 17.6399C3.86992 14.6774 1.6039 11.0841 0.210988 7.12636C-0.332012 5.58136 0.155488 3.92086 1.26549 2.81086L2.81649 1.25986H2.81499Z" fill="#E9F1F7"/>
</g>
<defs>
<clipPath id="clip0_150_3927">
<rect width="24" height="24" fill="white" transform="translate(0 0.5)"/>
</clipPath>
</defs>
</svg>
